<?xml version="1.0" encoding="UTF-8" standalone="no"?>
<!-- Created with Inkscape (http://www.inkscape.org/) -->

<svg
   width="115.30571mm"
   height="92.649239mm"
   viewBox="0 0 115.30571 92.649239"
   version="1.1"
   id="svg1"
   xml:space="preserve"
   inkscape:version="1.3 (0e150ed6c4, 2023-07-21)"
   sodipodi:docname="simple_compiler.svg"
   xmlns:inkscape="http://www.inkscape.org/namespaces/inkscape"
   xmlns:sodipodi="http://sodipodi.sourceforge.net/DTD/sodipodi-0.dtd"
   xmlns:xlink="http://www.w3.org/1999/xlink"
   xmlns="http://www.w3.org/2000/svg"
   xmlns:svg="http://www.w3.org/2000/svg"><sodipodi:namedview
     id="namedview1"
     pagecolor="#ffffff"
     bordercolor="#000000"
     borderopacity="0.25"
     inkscape:showpageshadow="2"
     inkscape:pageopacity="0.0"
     inkscape:pagecheckerboard="0"
     inkscape:deskcolor="#d1d1d1"
     inkscape:document-units="mm"
     showguides="false"
     inkscape:zoom="0.79266521"
     inkscape:cx="524.81173"
     inkscape:cy="594.82868"
     inkscape:window-width="1920"
     inkscape:window-height="1011"
     inkscape:window-x="0"
     inkscape:window-y="32"
     inkscape:window-maximized="1"
     inkscape:current-layer="layer1" /><defs
     id="defs1" /><g
     inkscape:label="Layer 1"
     inkscape:groupmode="layer"
     id="layer1"
     transform="translate(-36.796468,-91.609411)"><rect
       style="fill:#323147;fill-opacity:1;stroke-width:4.93145;stroke-linecap:round;paint-order:markers fill stroke"
       id="rect1"
       width="115.30572"
       height="92.649239"
       x="36.796467"
       y="91.609413"
       inkscape:export-filename="compiler_croped.svg"
       inkscape:export-xdpi="96"
       inkscape:export-ydpi="96" /><g
       id="g15"
       transform="translate(-2.4187095,-0.0522494)"><text
         xml:space="preserve"
         style="font-size:6.55252px;font-family:Sans;-inkscape-font-specification:Sans;fill:#ffffff;fill-opacity:1;stroke-width:10.6317;stroke-linecap:round;paint-order:markers fill stroke"
         x="64.44622"
         y="104.3615"
         id="text3"><tspan
           sodipodi:role="line"
           id="tspan3"
           style="fill:#ffffff;fill-opacity:1;stroke-width:10.6318"
           x="64.44622"
           y="104.3615">Our Simple Compiler</tspan></text><g
         id="g3"
         transform="matrix(0.18434959,0,0,0.18434959,129.85672,99.339556)"><path
           fill="#ffcb4c"
           d="m 30.728,5.272 c 7.029,7.029 7.029,18.427 0,25.456 -7.029,7.029 -18.426,7.029 -25.456,0 -7.029,-7.029 -7.029,-18.427 0,-25.456 7.029,-7.029 18.426,-7.029 25.456,0"
           id="path1" /><path
           fill="#65471b"
           d="m 19.279,19.28 c -3.494,3.494 -6.219,5.404 -9.645,7.714 -0.781,0.529 -1.928,1.929 10e-4,3.859 3.857,3.857 13.111,4.247 19.287,-1.929 6.177,-6.177 5.788,-15.43 1.929,-19.288 -1.929,-1.93 -3.33,-0.782 -3.858,0 -2.308,3.423 -4.219,6.149 -7.714,9.644 z"
           id="path2" /><path
           fill="#ffffff"
           d="m 11.564,28.923 c 0,0 3.858,-1.929 9.644,-7.716 5.787,-5.786 7.715,-9.643 7.715,-9.643 0,0 1.928,5.787 -4.822,12.537 -6.75,6.751 -12.537,4.822 -12.537,4.822 z"
           id="path3" /><path
           fill="#65471b"
           d="M 8.265,25.234 C 8.05,25.449 7.74,25.564 7.416,25.517 6.869,25.439 6.489,24.933 6.568,24.386 6.593,24.21 7.111,20.756 9.342,17.464 6.715,18.337 4.753,20.26 4.728,20.285 4.337,20.674 3.704,20.673 3.314,20.282 c -0.39,-0.39 -0.39,-1.022 0,-1.412 0.156,-0.156 3.882,-3.828 8.485,-3.828 0.405,0 0.769,0.243 0.924,0.617 0.155,0.374 0.069,0.804 -0.217,1.09 -3.262,3.262 -3.953,7.874 -3.96,7.919 -0.031,0.224 -0.134,0.419 -0.281,0.566 z M 25.233,8.264 c -0.147,0.147 -0.341,0.25 -0.563,0.282 -0.047,0.007 -4.676,0.715 -7.921,3.96 -0.286,0.286 -0.716,0.372 -1.09,0.217 -0.374,-0.155 -0.617,-0.519 -0.617,-0.924 0,-4.604 3.672,-8.329 3.828,-8.485 0.39,-0.39 1.022,-0.39 1.412,0 0.391,0.389 0.392,1.023 0.003,1.413 -0.026,0.026 -1.949,1.987 -2.822,4.614 3.292,-2.231 6.745,-2.749 6.921,-2.774 0.546,-0.078 1.052,0.3 1.131,0.847 0.049,0.324 -0.066,0.635 -0.282,0.85 z"
           id="path4" /><path
           fill="#64aadd"
           d="m 30.101,12.055 c 2.741,0.334 5.234,-1.618 5.567,-4.36 C 36.002,4.954 34.051,2.461 31.309,2.127 28.568,1.794 20.9,4.89 20.779,5.883 20.658,6.875 27.36,11.72 30.101,12.055 Z M 12.157,29.999 c 0.334,2.741 -1.618,5.234 -4.36,5.567 C 5.056,35.9 2.563,33.949 2.229,31.207 1.895,28.465 4.992,20.797 5.985,20.676 c 0.992,-0.12 5.837,6.582 6.172,9.323 z"
           id="path5" /></g></g><g
       id="g33"><rect
         style="fill:#c55959;fill-opacity:1;stroke-width:7.5438;stroke-linecap:round;paint-order:markers fill stroke"
         id="rect15"
         width="24.580393"
         height="13.001976"
         x="95.947433"
         y="112.74163"
         ry="1.2966964" /><text
         xml:space="preserve"
         style="font-size:3.08158px;font-family:Sans;-inkscape-font-specification:Sans;text-align:center;text-anchor:middle;fill:#ffffff;fill-opacity:1;stroke-width:4.99999;stroke-linecap:round;paint-order:markers fill stroke"
         x="108.21914"
         y="120.04383"
         id="text4-5-3"><tspan
           sodipodi:role="line"
           id="tspan4-6-61"
           style="font-weight:bold;text-align:center;text-anchor:middle;fill:#ffffff;fill-opacity:1;stroke-width:5"
           x="108.21914"
           y="120.04383">Linking</tspan></text></g><g
       id="g32"
       transform="translate(-0.51838591)"><use
         x="0"
         y="0"
         xlink:href="#rect15"
         id="use16"
         transform="translate(-25.649505)" /><text
         xml:space="preserve"
         style="font-size:3.08158px;font-family:Sans;-inkscape-font-specification:Sans;text-align:center;text-anchor:middle;fill:#ffffff;fill-opacity:1;stroke-width:4.99999;stroke-linecap:round;paint-order:markers fill stroke"
         x="82.85006"
         y="118.11784"
         id="text4-5-73"><tspan
           sodipodi:role="line"
           id="tspan4-6-6"
           style="font-weight:bold;text-align:center;text-anchor:middle;fill:#ffffff;fill-opacity:1;stroke-width:5"
           x="82.85006"
           y="118.11784">Parsing &amp; </tspan><tspan
           sodipodi:role="line"
           style="font-weight:bold;text-align:center;text-anchor:middle;fill:#ffffff;fill-opacity:1;stroke-width:5"
           x="82.85006"
           y="121.96982"
           id="tspan8">Codegen</tspan></text></g><text
       xml:space="preserve"
       style="font-size:5.82455px;font-family:Sans;-inkscape-font-specification:Sans;fill:#ffffff;fill-opacity:1;stroke-width:9.45057;stroke-linecap:round;paint-order:markers fill stroke"
       x="58.413589"
       y="141.13443"
       id="text1"><tspan
         sodipodi:role="line"
         id="tspan1"
         style="fill:#ffffff;fill-opacity:1;stroke-width:9.45059"
         x="58.413589"
         y="141.13443">Most Modern Compilers</tspan><tspan
         sodipodi:role="line"
         style="fill:#ffffff;fill-opacity:1;stroke-width:9.45059"
         x="58.413589"
         y="148.41512"
         id="tspan2" /></text><g
       id="g25"
       transform="translate(0.42593691,-0.35438137)"><use
         x="0"
         y="0"
         xlink:href="#use17"
         id="use18"
         transform="translate(25.741954,0.35438137)" /><text
         xml:space="preserve"
         style="font-size:3.08158px;font-family:Sans;-inkscape-font-specification:Sans;text-align:center;text-anchor:middle;fill:#ffffff;fill-opacity:1;stroke-width:4.99999;stroke-linecap:round;paint-order:markers fill stroke"
         x="79.319382"
         y="157.56938"
         id="text4-5"><tspan
           sodipodi:role="line"
           id="tspan4-6"
           style="font-weight:bold;text-align:center;text-anchor:middle;fill:#ffffff;fill-opacity:1;stroke-width:5"
           x="79.319382"
           y="157.56938">Parsing</tspan></text></g><g
       id="g28"
       transform="translate(0.52916667)"><use
         x="0"
         y="0"
         xlink:href="#use21"
         id="use22"
         transform="translate(-25.109557,16.63948)" /><text
         xml:space="preserve"
         style="font-size:3.08158px;font-family:Sans;-inkscape-font-specification:Sans;text-align:center;text-anchor:middle;fill:#ffffff;fill-opacity:1;stroke-width:4.99999;stroke-linecap:round;paint-order:markers fill stroke"
         x="105.62608"
         y="172.67271"
         id="text4-5-3-0"><tspan
           sodipodi:role="line"
           id="tspan4-6-61-6"
           style="font-weight:bold;text-align:center;text-anchor:middle;fill:#ffffff;fill-opacity:1;stroke-width:5"
           x="105.62608"
           y="172.67271">Register</tspan><tspan
           sodipodi:role="line"
           style="font-weight:bold;text-align:center;text-anchor:middle;fill:#ffffff;fill-opacity:1;stroke-width:5"
           x="105.62608"
           y="176.52469"
           id="tspan12">Allocation</tspan></text></g><g
       id="g24"><use
         x="0"
         y="0"
         xlink:href="#use16"
         id="use17"
         transform="translate(-28.992207,37.171171)" /><text
         xml:space="preserve"
         style="font-size:3.08158px;font-family:Sans;-inkscape-font-specification:Sans;text-align:center;text-anchor:middle;fill:#ffffff;fill-opacity:1;stroke-width:4.99999;stroke-linecap:round;paint-order:markers fill stroke"
         x="53.68066"
         y="157.56938"
         id="text4-5-7-95"><tspan
           sodipodi:role="line"
           id="tspan4-6-5-0"
           style="font-weight:bold;text-align:center;text-anchor:middle;fill:#ffffff;fill-opacity:1;stroke-width:5"
           x="53.68066"
           y="157.56938">Tokenization</tspan></text></g><g
       id="g26"
       transform="translate(0.95646185,-0.38981001)"><use
         x="0"
         y="0"
         xlink:href="#use18"
         id="use20"
         transform="translate(25.637366,0.03542864)" /><text
         xml:space="preserve"
         style="font-size:2.67466px;font-family:Sans;-inkscape-font-specification:Sans;text-align:center;text-anchor:middle;fill:#ffffff;fill-opacity:1;stroke-width:4.33974;stroke-linecap:round;paint-order:markers fill stroke"
         x="104.95518"
         y="154.46327"
         id="text4-5-7-9"><tspan
           sodipodi:role="line"
           id="tspan4-6-5-3"
           style="font-weight:bold;text-align:center;text-anchor:middle;fill:#ffffff;fill-opacity:1;stroke-width:4.33976"
           x="104.95518"
           y="154.46327">Intermediate</tspan><tspan
           sodipodi:role="line"
           style="font-weight:bold;text-align:center;text-anchor:middle;fill:#ffffff;fill-opacity:1;stroke-width:4.33976"
           x="104.95518"
           y="157.80659"
           id="tspan9">Representation</tspan><tspan
           sodipodi:role="line"
           style="font-weight:bold;text-align:center;text-anchor:middle;fill:#ffffff;fill-opacity:1;stroke-width:4.33976"
           x="104.95518"
           y="161.14992"
           id="tspan10">Construction</tspan></text></g><g
       id="g27"
       transform="translate(1.4794998,-0.389835)"><use
         x="0"
         y="0"
         xlink:href="#rect15"
         id="use21"
         transform="translate(22.382461,37.561006)" /><text
         xml:space="preserve"
         style="font-size:2.38372px;font-family:Sans;-inkscape-font-specification:Sans;text-align:center;text-anchor:middle;fill:#ffffff;fill-opacity:1;stroke-width:3.86768;stroke-linecap:round;paint-order:markers fill stroke"
         x="130.59625"
         y="154.38892"
         id="text4-5-6"><tspan
           sodipodi:role="line"
           id="tspan4-6-1"
           style="font-weight:bold;text-align:center;text-anchor:middle;fill:#ffffff;fill-opacity:1;stroke-width:3.86768"
           x="130.59625"
           y="154.38892">Target</tspan><tspan
           sodipodi:role="line"
           style="font-weight:bold;text-align:center;text-anchor:middle;fill:#ffffff;fill-opacity:1;stroke-width:3.86768"
           x="130.59625"
           y="157.36856"
           id="tspan6">Independent</tspan><tspan
           sodipodi:role="line"
           style="font-weight:bold;text-align:center;text-anchor:middle;fill:#ffffff;fill-opacity:1;stroke-width:3.86768"
           x="130.59625"
           y="160.34822"
           id="tspan7">Optimizations</tspan></text></g><g
       id="g29"><use
         x="0"
         y="0"
         xlink:href="#use22"
         id="use23"
         transform="translate(-25.638727)" /><text
         xml:space="preserve"
         style="font-size:2.38372px;font-family:Sans;-inkscape-font-specification:Sans;text-align:center;text-anchor:middle;fill:#ffffff;fill-opacity:1;stroke-width:3.86768;stroke-linecap:round;paint-order:markers fill stroke"
         x="79.847969"
         y="171.0284"
         id="text4-5-6-6"><tspan
           sodipodi:role="line"
           id="tspan4-6-1-1"
           style="font-weight:bold;text-align:center;text-anchor:middle;fill:#ffffff;fill-opacity:1;stroke-width:3.86768"
           x="79.847969"
           y="171.0284">Target</tspan><tspan
           sodipodi:role="line"
           style="font-weight:bold;text-align:center;text-anchor:middle;fill:#ffffff;fill-opacity:1;stroke-width:3.86768"
           x="79.847969"
           y="174.00804"
           id="tspan6-5">dependent</tspan><tspan
           sodipodi:role="line"
           style="font-weight:bold;text-align:center;text-anchor:middle;fill:#ffffff;fill-opacity:1;stroke-width:3.86768"
           x="79.847969"
           y="176.9877"
           id="tspan7-5">Optimizations</tspan></text></g><g
       id="g30"><use
         x="0"
         y="0"
         xlink:href="#use23"
         id="use24"
         transform="translate(-26.175734,-0.03544184)" /><text
         xml:space="preserve"
         style="font-size:3.08158px;font-family:Sans;-inkscape-font-specification:Sans;text-align:center;text-anchor:middle;fill:#ffffff;fill-opacity:1;stroke-width:4.99999;stroke-linecap:round;paint-order:markers fill stroke"
         x="53.762325"
         y="172.63727"
         id="text4-5-0"><tspan
           sodipodi:role="line"
           id="tspan4-6-9"
           style="font-weight:bold;text-align:center;text-anchor:middle;fill:#ffffff;fill-opacity:1;stroke-width:5"
           x="53.762325"
           y="172.63727">Instruction</tspan><tspan
           sodipodi:role="line"
           style="font-weight:bold;text-align:center;text-anchor:middle;fill:#ffffff;fill-opacity:1;stroke-width:5"
           x="53.762325"
           y="176.48924"
           id="tspan5">Selection</tspan></text></g><use
       x="0"
       y="0"
       xlink:href="#g33"
       id="use33"
       transform="translate(23.969963,54.200486)" /></g></svg>
